<?xml version="1.0" standalone="no"?>
<!DOCTYPE svg PUBLIC "-//W3C//DTD SVG 20010904//EN"
 "http://www.w3.org/TR/2001/REC-SVG-20010904/DTD/svg10.dtd">
<svg version="1.0" xmlns="http://www.w3.org/2000/svg"
 width="300.000000pt" height="300.000000pt" viewBox="0 0 300.000000 300.000000"
 preserveAspectRatio="xMidYMid meet">
<metadata>
Created by potrace 1.11, written by Peter Selinger 2001-2013
</metadata>
<g transform="translate(0.000000,300.000000) scale(0.100000,-0.100000)"
fill="#000000" stroke="none">
<path d="M253 2986 c-102 -33 -176 -97 -222 -196 l-26 -55 0 -1235 0 -1235 26
-56 c37 -79 90 -133 167 -171 l67 -33 1235 0 1235 0 67 33 c77 38 130 92 167
171 l26 56 0 1235 0 1235 -33 67 c-38 77 -92 130 -171 167 l-56 26 -1220 2
c-989 1 -1228 -1 -1262 -11z m1782 -891 c59 -29 130 -106 149 -161 10 -29 16
-81 16 -131 l0 -83 -115 0 -115 0 0 39 c0 23 -9 51 -23 72 -43 64 -42 64 -462
64 -355 0 -382 -1 -411 -19 -86 -52 -86 -184 -1 -236 30 -19 53 -20 458 -20
481 0 494 -2 572 -70 25 -23 58 -65 72 -94 26 -53 26 -59 23 -213 -2 -130 -6
-165 -22 -195 -25 -52 -88 -112 -144 -140 l-47 -23 -480 0 -480 0 -57 28
c-109 53 -159 136 -166 275 l-5 92 105 0 105 0 7 -50 c4 -31 16 -60 32 -80 51
-60 48 -60 450 -60 358 0 367 0 405 22 53 30 83 92 77 159 -5 53 -26 89 -72
123 -26 20 -43 21 -459 26 -414 5 -434 6 -478 26 -55 26 -111 80 -141 137 -19
35 -23 62 -26 162 -2 69 1 138 7 161 15 56 64 126 111 159 79 55 76 55 595 52
455 -2 482 -3 520 -22z"/>
</g>
</svg>
